<?xml version="1.0" encoding="UTF-8"?><svg id="a" xmlns="http://www.w3.org/2000/svg" viewBox="0 0 348.64 47.02"><defs><style>.b{fill:#fff;}</style></defs><g><path class="b" d="M131.03,33.4c-.95,.45-2.16,.67-3.64,.67s-2.84-.35-4.05-1.05c-1.21-.7-2.17-1.84-2.87-3.42-.71-1.58-1.06-3.67-1.06-6.29s.37-4.82,1.12-6.39,1.73-2.7,2.95-3.38,2.55-1.02,3.99-1.02c1.01,0,1.97,.15,2.89,.45,.92,.3,1.8,.8,2.63,1.5l1.85-2.16c-1.04-.84-2.15-1.48-3.3-1.91s-2.6-.65-4.32-.65c-2.02,0-3.89,.52-5.61,1.55-1.71,1.03-3.08,2.55-4.11,4.57-1.03,2.01-1.54,4.5-1.54,7.45s.5,5.42,1.51,7.44c1.01,2.02,2.37,3.55,4.1,4.59s3.65,1.57,5.78,1.57c1.87,0,3.45-.28,4.74-.85,1.29-.57,2.33-1.24,3.13-2.01l-1.72-2.18c-.7,.57-1.53,1.08-2.47,1.53Z"/><path class="b" d="M153.66,17.23c-1.28-.86-2.87-1.29-4.77-1.29s-3.47,.44-4.77,1.33c-1.29,.89-2.27,2.12-2.93,3.7-.66,1.58-.99,3.41-.99,5.48s.33,3.94,.98,5.51,1.63,2.79,2.91,3.66c1.29,.87,2.87,1.3,4.76,1.3s3.47-.45,4.75-1.35,2.25-2.14,2.91-3.72c.66-1.58,.99-3.39,.99-5.44s-.32-3.97-.97-5.54c-.64-1.57-1.6-2.78-2.88-3.64Zm-.9,15.12c-.87,1.29-2.17,1.93-3.91,1.93s-3.03-.64-3.91-1.93-1.31-3.25-1.31-5.9,.44-4.69,1.33-5.97c.88-1.28,2.19-1.92,3.93-1.92s3.01,.64,3.88,1.92c.87,1.28,1.3,3.26,1.3,5.93s-.44,4.65-1.31,5.94Z"/><path class="b" d="M177.88,18.31c-.67-.78-1.45-1.37-2.33-1.77-.88-.4-1.9-.6-3.06-.6-1.66,0-3.07,.46-4.25,1.37-1.18,.91-2.08,2.16-2.7,3.74-.62,1.59-.94,3.38-.94,5.4s.27,3.9,.82,5.47,1.39,2.8,2.52,3.68c1.13,.88,2.57,1.32,4.32,1.32,1.11,0,2.15-.25,3.12-.75,.97-.5,1.84-1.28,2.59-2.35l.31,2.66h2.81V8.27l-3.21-.4v10.45Zm0,12.84c-.54,.82-1.21,1.55-2.02,2.2-.81,.65-1.79,.97-2.93,.97-1.04,0-1.93-.29-2.65-.88-.72-.59-1.26-1.46-1.63-2.64-.37-1.17-.55-2.62-.55-4.36,0-2.66,.45-4.65,1.36-5.96,.9-1.31,2.2-1.97,3.88-1.97,.93,0,1.78,.23,2.56,.68,.78,.45,1.44,1.09,1.99,1.9v10.05Z"/><path class="b" d="M202.33,17.14c-1.22-.8-2.68-1.19-4.37-1.19-1.78,0-3.33,.45-4.64,1.36-1.31,.9-2.33,2.15-3.06,3.72s-1.09,3.39-1.09,5.42,.36,3.9,1.08,5.47c.72,1.57,1.77,2.8,3.14,3.68,1.38,.88,3.04,1.32,4.99,1.32,1.26,0,2.49-.21,3.7-.63,1.2-.42,2.28-1,3.22-1.74l-1.51-2.12c-.88,.6-1.74,1.05-2.57,1.36-.83,.31-1.77,.46-2.8,.46s-1.99-.23-2.86-.7c-.88-.46-1.59-1.19-2.12-2.18-.53-.99-.83-2.26-.9-3.81h13.52c.03-.23,.04-.49,.06-.79,.01-.3,.02-.62,.02-.97,0-2.04-.33-3.79-.98-5.26-.66-1.47-1.59-2.6-2.82-3.4Zm-9.78,7.94c.14-2.22,.71-3.85,1.71-4.91,1-1.06,2.24-1.59,3.73-1.59s2.72,.54,3.63,1.63c.9,1.09,1.37,2.71,1.41,4.86h-10.49Z"/><path class="b" d="M227.45,23.44c-.92-.44-1.87-.74-2.85-.89,.84-.19,1.63-.52,2.38-.99,.75-.47,1.35-1.1,1.81-1.88s.7-1.74,.7-2.87c0-1.29-.27-2.36-.8-3.21-.53-.85-1.24-1.53-2.13-2.03-.88-.5-1.88-.86-2.98-1.07-1.1-.21-2.23-.32-3.39-.32h-6.48v26.3h7.07c1.21,0,2.4-.12,3.56-.37,1.16-.25,2.22-.66,3.17-1.23,.95-.57,1.71-1.34,2.27-2.31s.85-2.17,.85-3.59-.3-2.66-.9-3.54c-.6-.88-1.36-1.55-2.28-1.99Zm-10.44-10.59h3.92c1.59,0,2.85,.32,3.77,.94,.92,.63,1.38,1.69,1.38,3.18s-.42,2.66-1.25,3.35c-.83,.69-2.03,1.04-3.58,1.04h-4.24V12.85Zm9.6,18.61c-.35,.61-.81,1.07-1.39,1.4-.58,.33-1.21,.56-1.88,.69s-1.34,.19-1.99,.19h-4.34v-9.65h4.49c1.02,0,1.96,.14,2.81,.42,.85,.28,1.54,.78,2.05,1.5,.52,.72,.77,1.74,.77,3.07,0,.98-.17,1.77-.53,2.38Z"/><path class="b" d="M249.87,31.17c-.55,.87-1.32,1.61-2.3,2.24-.99,.63-2.03,.95-3.14,.95s-2.01-.29-2.56-.88c-.55-.59-.82-1.54-.82-2.86v-14.25h-3.21v14.63c0,1.87,.48,3.33,1.44,4.36,.96,1.04,2.42,1.56,4.37,1.56,1.18,0,2.36-.27,3.51-.81s2.13-1.32,2.92-2.34l.27,2.71h2.73V16.36h-3.21v14.8Z"/><path class="b" d="M274.75,15.92c-1.82,0-3.29,.45-4.39,1.36-1.11,.9-2.05,2.18-2.83,3.84l-.59-4.76h-5.58v2.46h3.13v15.19h-3.13v2.46h10.43v-2.46h-4.09v-8.52c.66-2.22,1.55-3.87,2.66-4.97,1.11-1.09,2.43-1.64,3.97-1.64,.06,0,.11,0,.17,0v4.27h2.64l.46-6.8c-.46-.13-.91-.23-1.35-.32-.44-.08-.94-.12-1.5-.12Z"/><path class="b" d="M302.73,17.24l-.99-3.02c-.79,.34-1.56,.64-2.32,.9-.76,.26-1.67,.45-2.72,.58-1.06,.13-2.43,.21-4.13,.22-1.58,0-2.97,.3-4.18,.9-1.21,.6-2.15,1.42-2.83,2.47-.68,1.05-1.01,2.26-1.01,3.62,0,1.29,.27,2.38,.82,3.29,.55,.9,1.4,1.66,2.56,2.27-.73,.47-1.28,1.01-1.65,1.62s-.56,1.24-.56,1.89c0,.99,.41,1.87,1.23,2.64,.82,.76,2.1,1.15,3.83,1.15h3.59c1.3,0,2.38,.24,3.25,.73s1.3,1.2,1.3,2.16c0,.73-.23,1.33-.68,1.82s-1.15,.86-2.08,1.11c-.94,.25-2.14,.37-3.62,.37s-2.66-.12-3.46-.37c-.8-.25-1.36-.63-1.66-1.14-.31-.51-.46-1.15-.46-1.93h-2.9c0,1.36,.26,2.49,.79,3.39s1.41,1.57,2.65,2.01c1.24,.44,2.92,.66,5.06,.66,3.06,0,5.42-.53,7.1-1.58,1.67-1.06,2.51-2.57,2.51-4.55,0-1.04-.31-1.97-.93-2.79-.62-.81-1.47-1.46-2.54-1.95-1.08-.48-2.29-.73-3.64-.73h-3.63c-1.03,0-1.74-.16-2.12-.48-.38-.32-.57-.72-.57-1.2,0-.38,.1-.75,.3-1.11,.2-.36,.45-.64,.75-.84,.42,.13,.86,.22,1.31,.29,.45,.06,1.02,.1,1.69,.1,1.59,0,2.95-.29,4.08-.88,1.13-.59,1.99-1.39,2.59-2.43s.9-2.21,.9-3.53c0-1.15-.29-2.14-.88-2.99-.59-.85-1.46-1.54-2.62-2.07,1.13,0,2.18-.03,3.15-.1,.97-.06,1.88-.23,2.73-.5Zm-5.71,5.65c0,1.48-.37,2.63-1.12,3.46-.75,.83-1.83,1.24-3.26,1.24-1.63,0-2.84-.44-3.63-1.32-.79-.88-1.18-2-1.18-3.36s.38-2.46,1.16-3.33c.77-.87,1.96-1.31,3.58-1.31,1.48,0,2.59,.39,3.33,1.17,.74,.78,1.12,1.93,1.12,3.45Z"/><path class="b" d="M321.26,17.14c-1.22-.8-2.68-1.19-4.37-1.19-1.78,0-3.33,.45-4.64,1.36-1.31,.9-2.33,2.15-3.06,3.72-.73,1.58-1.09,3.39-1.09,5.42s.36,3.9,1.08,5.47,1.77,2.8,3.14,3.68c1.38,.88,3.04,1.32,4.99,1.32,1.26,0,2.49-.21,3.7-.63,1.2-.42,2.28-1,3.22-1.74l-1.51-2.12c-.88,.6-1.74,1.05-2.57,1.36-.83,.31-1.77,.46-2.8,.46s-1.99-.23-2.86-.7c-.88-.46-1.59-1.19-2.12-2.18-.53-.99-.83-2.26-.9-3.81h13.52c.03-.23,.05-.49,.06-.79,.01-.3,.02-.62,.02-.97,0-2.04-.33-3.79-.98-5.26-.66-1.47-1.59-2.6-2.82-3.4Zm-9.78,7.94c.14-2.22,.71-3.85,1.71-4.91,1-1.06,2.24-1.59,3.73-1.59s2.73,.54,3.63,1.63c.9,1.09,1.38,2.71,1.41,4.86h-10.49Z"/><path class="b" d="M347.29,16.05c-.44-.08-.94-.12-1.5-.12-1.82,0-3.29,.45-4.39,1.36-1.11,.9-2.05,2.18-2.83,3.84l-.59-4.76h-5.58v2.46h3.13v15.19h-3.13v2.46h10.43v-2.46h-4.09v-8.52c.66-2.22,1.55-3.87,2.66-4.97,1.11-1.09,2.43-1.64,3.97-1.64,.06,0,.11,0,.17,0v4.27h2.64l.46-6.8c-.46-.13-.91-.23-1.35-.32Z"/></g><g><polygon class="b" points="80.87 0 62.05 47.02 64.72 47.02 83.55 0 80.87 0"/><polygon class="b" points="83.15 11.95 81.57 13.91 96.75 23.48 81.57 32.92 82.94 35.07 96.33 26.79 98.97 25.16 98.97 21.88 83.15 11.95"/><polygon class="b" points="16.04 11.97 2.64 20.25 0 21.88 0 25.16 15.83 35.08 17.4 33.13 2.22 23.56 17.4 14.11 16.04 11.97"/><path class="b" d="M61.05,17.49C61.05,7.85,53.21,0,43.56,0h-3.83c-9.64,0-17.49,7.85-17.49,17.49v2.89H61.05v-2.89Zm-1.94,.94H24.19v-.94c0-8.57,6.97-15.54,15.54-15.54h3.83c8.57,0,15.54,6.97,15.54,15.54v.94Z"/><path class="b" d="M22.25,37.92c0,5.02,4.08,9.1,9.1,9.1h20.6c5.02,0,9.1-4.08,9.1-9.1v-.97H22.25v.97Zm36.8,.97c-.48,3.49-3.48,6.19-7.09,6.19H31.35c-3.62,0-6.62-2.7-7.09-6.19H59.04Z"/><path class="b" d="M28.63,26.22c1.91,0,2.91-.65,3.78-1.22,.77-.5,1.38-.9,2.72-.9s1.94,.4,2.72,.9c.88,.57,1.87,1.22,3.78,1.22s2.91-.65,3.78-1.22c.77-.5,1.38-.9,2.72-.9s1.95,.4,2.72,.9c.88,.57,1.87,1.22,3.78,1.22s2.91-.65,3.78-1.22c.77-.5,1.38-.9,2.72-.9v-1.95c-1.91,0-2.91,.65-3.78,1.22-.77,.5-1.38,.9-2.72,.9s-1.95-.4-2.72-.9c-.88-.57-1.87-1.22-3.78-1.22s-2.91,.65-3.78,1.22c-.77,.5-1.38,.9-2.72,.9s-1.94-.4-2.72-.9c-.88-.57-1.87-1.22-3.78-1.22s-2.91,.65-3.78,1.22c-.77,.5-1.38,.9-2.72,.9s-1.94-.4-2.72-.9c-.87-.57-1.87-1.22-3.78-1.22v1.95c1.34,0,1.95,.4,2.72,.9,.87,.57,1.87,1.22,3.78,1.22Z"/><path class="b" d="M59.91,34.88c1.88,0,3.4-1.53,3.4-3.4s-1.53-3.4-3.4-3.4H23.11c-1.88,0-3.4,1.53-3.4,3.4s1.53,3.4,3.4,3.4H59.91Zm-38.26-3.4c0-.8,.65-1.46,1.46-1.46H59.91c.8,0,1.46,.65,1.46,1.46s-.65,1.46-1.46,1.46H23.11c-.8,0-1.46-.65-1.46-1.46Z"/><path class="b" d="M35.25,5.04c-.19-.33-.84-.33-1.45,.02s-.96,.89-.77,1.23c.19,.33,.84,.33,1.45-.02,.61-.34,.96-.89,.77-1.23Z"/><path class="b" d="M31.15,7.79c-.26-.28-.89-.13-1.41,.35-.52,.47-.73,1.09-.47,1.37,.26,.28,.89,.13,1.41-.35s.73-1.09,.47-1.37Z"/><path class="b" d="M32.23,10.41c-.35-.15-.86,.26-1.13,.91-.27,.65-.2,1.29,.15,1.44,.35,.15,.86-.26,1.13-.91,.27-.65,.2-1.29-.15-1.44Z"/><path class="b" d="M35.36,7.8c-.38-.08-.8,.42-.94,1.1-.14,.69,.04,1.31,.42,1.39,.38,.08,.8-.42,.94-1.1,.14-.69-.04-1.31-.42-1.39Z"/><path class="b" d="M38.05,5.35c-.69,.13-1.19,.55-1.12,.92s.69,.57,1.38,.44c.69-.13,1.19-.55,1.12-.92s-.69-.57-1.38-.44Z"/></g></svg>