<?xml version="1.0" encoding="UTF-8"?><svg id="a" xmlns="http://www.w3.org/2000/svg" viewBox="0 0 216.95 262.83"><defs><style>.b{fill:#21202b;}</style></defs><g><path class="b" d="M81.36,262.83c-9.97,0-18.08-8.11-18.08-18.08s8.11-18.08,18.08-18.08,18.08,8.11,18.08,18.08-8.11,18.08-18.08,18.08Zm0-18.08h0Z"/><path class="b" d="M180.79,262.83c-9.97,0-18.08-8.11-18.08-18.08s8.11-18.08,18.08-18.08,18.08,8.11,18.08,18.08-8.11,18.08-18.08,18.08Zm0-18.08h0Z"/><path class="b" d="M87.15,208.6c-12.93,0-24.06-9.11-26.59-21.84l-15.1-75.44c-.06-.25-.11-.5-.15-.76l-7.52-37.56H9.04c-4.99,0-9.04-4.05-9.04-9.04s4.05-9.04,9.04-9.04H45.2c4.31,0,8.02,3.04,8.86,7.26l7.59,37.93H207.91c2.69,0,5.25,1.2,6.96,3.28,1.72,2.08,2.42,4.81,1.91,7.46l-14.46,75.84c-2.54,12.79-13.68,21.9-26.6,21.9-.14,0-.29,0-.43,0H87.58c-.14,0-.29,0-.43,0Zm.36-18.08h87.86c.12,0,.23,0,.35,0,4.31,0,8.02-3.04,8.86-7.28l12.4-65.04H65.27l13.02,65.03c.86,4.31,4.65,7.37,9.04,7.29,.06,0,.12,0,.17,0Z"/></g><path class="b" d="M110.32,146.42c-5.13,0-9.31-4.18-9.31-9.31s4.18-9.31,9.31-9.31,9.31,4.18,9.31,9.31-4.18,9.31-9.31,9.31Zm0-9.31h0Z"/><path class="b" d="M154.49,146.42c-5.13,0-9.31-4.18-9.31-9.31s4.18-9.31,9.31-9.31,9.31,4.18,9.31,9.31-4.18,9.31-9.31,9.31Zm0-9.31h0Z"/><path class="b" d="M130.36,182.84c-14.26,0-27.57-7.68-34.72-20.05-1.48-2.56-.61-5.85,1.96-7.33,2.56-1.49,5.85-.61,7.33,1.96,5.24,9.06,14.99,14.69,25.43,14.69s20.19-5.63,25.43-14.69c1.48-2.56,4.77-3.44,7.33-1.96,2.56,1.48,3.44,4.77,1.96,7.33-7.16,12.37-20.46,20.05-34.72,20.05Z"/><g><path class="b" d="M123.87,48.88c-2.39-12.9-14.82-21.45-27.72-19.06l-5.12,.95c-12.9,2.39-21.45,14.82-19.06,27.72l.71,3.86,51.9-9.6-.71-3.86Zm-2.37,1.74l-46.69,8.64-.23-1.26c-2.12-11.46,5.48-22.51,16.94-24.63l5.12-.95c11.46-2.12,22.51,5.48,24.63,16.94l.23,1.26Z"/><path class="b" d="M77.03,85.8c1.24,6.71,7.71,11.16,14.43,9.92l27.55-5.1c6.71-1.24,11.16-7.71,9.92-14.43l-.24-1.3-51.9,9.6,.24,1.3Zm49.45-7.8c.23,4.78-3.12,9.13-7.95,10.03l-27.55,5.1c-4.84,.9-9.52-1.97-11.02-6.52l46.52-8.61Z"/><path class="b" d="M82.67,68.58c2.56-.47,3.73-1.58,4.75-2.56,.91-.87,1.63-1.55,3.41-1.88,1.78-.33,2.7,.05,3.85,.53,1.31,.55,2.8,1.17,5.36,.69s3.73-1.58,4.76-2.56c.91-.87,1.63-1.55,3.41-1.88s2.7,.05,3.86,.53c1.31,.55,2.8,1.17,5.36,.69s3.73-1.59,4.76-2.56c.91-.87,1.63-1.55,3.42-1.88l-.48-2.6c-2.56,.47-3.73,1.59-4.76,2.56-.91,.87-1.63,1.55-3.42,1.88s-2.7-.05-3.86-.53c-1.31-.55-2.8-1.17-5.36-.69-2.56,.47-3.73,1.58-4.76,2.57-.91,.87-1.63,1.55-3.41,1.88s-2.7-.05-3.86-.53c-1.31-.55-2.8-1.17-5.36-.69s-3.73,1.58-4.76,2.56c-.91,.87-1.63,1.55-3.41,1.88s-2.7-.05-3.86-.53c-1.31-.55-2.8-1.17-5.36-.69l.48,2.6c1.79-.33,2.7,.05,3.86,.53,1.31,.55,2.8,1.17,5.36,.69Z"/><path class="b" d="M126.66,72.42c2.51-.46,4.17-2.88,3.71-5.39s-2.88-4.17-5.39-3.71l-49.22,9.11c-2.51,.46-4.17,2.88-3.71,5.39s2.88,4.17,5.39,3.71l49.22-9.11Zm-52.01,4.92c-.2-1.07,.51-2.11,1.59-2.31l49.22-9.11c1.07-.2,2.11,.51,2.31,1.59s-.51,2.11-1.59,2.31l-49.22,9.11c-1.07,.2-2.11-.52-2.31-1.59Z"/><path class="b" d="M86.29,38.62c-.33-.4-1.2-.23-1.93,.38s-1.06,1.43-.73,1.83c.33,.4,1.2,.23,1.93-.38,.73-.61,1.06-1.43,.73-1.83Z"/><path class="b" d="M81.49,43.3c-.42-.31-1.22,.05-1.8,.81-.58,.76-.71,1.64-.29,1.95,.42,.31,1.22-.05,1.8-.81s.71-1.64,.29-1.95Z"/><path class="b" d="M83.58,46.54c-.51-.11-1.09,.56-1.29,1.49-.2,.93,.05,1.78,.56,1.89,.51,.11,1.09-.56,1.29-1.49,.2-.93-.05-1.78-.56-1.89Z"/><path class="b" d="M87.11,42.28c-.52-.01-.96,.75-.98,1.71-.02,.96,.38,1.74,.9,1.75,.52,.01,.96-.75,.98-1.71,.02-.96-.38-1.74-.9-1.75Z"/><path class="b" d="M90.11,38.34c-.89,.35-1.46,1.03-1.27,1.51s1.07,.6,1.96,.25c.89-.35,1.46-1.03,1.27-1.51s-1.07-.6-1.96-.25Z"/></g><g><path class="b" d="M191.11,31.03c3.28-12.7-4.39-25.7-17.09-28.97l-5.04-1.3c-12.7-3.28-25.7,4.39-28.97,17.09l-.98,3.8,51.1,13.19,.98-3.8Zm-2.88,.58l-45.98-11.86,.32-1.24c2.91-11.29,14.46-18.1,25.75-15.19l5.04,1.3c11.29,2.91,18.1,14.46,15.19,25.75l-.32,1.24Z"/><path class="b" d="M133.06,44.75c-1.71,6.61,2.28,13.38,8.9,15.08l27.13,7c6.61,1.71,13.38-2.28,15.08-8.89l.33-1.28-51.1-13.19-.33,1.28Zm48.13,13.78c-1.81,4.43-6.68,6.97-11.44,5.74l-27.13-7c-4.76-1.23-7.8-5.8-7.24-10.56l45.81,11.82Z"/><path class="b" d="M145.44,31.51c2.52,.65,4.05,.14,5.39-.32,1.19-.4,2.13-.72,3.89-.26,1.76,.45,2.42,1.18,3.27,2.11,.96,1.05,2.04,2.24,4.56,2.89,2.52,.65,4.05,.14,5.39-.32,1.19-.4,2.13-.72,3.89-.26s2.43,1.19,3.28,2.11c.96,1.05,2.05,2.24,4.57,2.89s4.05,.14,5.4-.32c1.19-.4,2.13-.72,3.89-.26l.66-2.56c-2.52-.65-4.05-.14-5.4,.32-1.19,.4-2.13,.72-3.89,.26s-2.43-1.19-3.28-2.11c-.96-1.05-2.05-2.24-4.57-2.89-2.52-.65-4.05-.14-5.39,.32-1.19,.4-2.13,.72-3.89,.26s-2.43-1.18-3.27-2.11c-.96-1.05-2.04-2.24-4.56-2.89s-4.05-.14-5.39,.32c-1.19,.4-2.13,.72-3.89,.26s-2.43-1.18-3.27-2.11c-.96-1.05-2.04-2.24-4.56-2.89l-.66,2.56c1.76,.45,2.43,1.19,3.27,2.11,.96,1.05,2.04,2.24,4.56,2.89Z"/><path class="b" d="M183.7,53.55c2.47,.64,5-.85,5.64-3.33s-.85-5-3.33-5.64l-48.47-12.51c-2.47-.64-5,.85-5.64,3.32s.85,5,3.33,5.64l48.47,12.51Zm-49.23-17.48c.27-1.06,1.36-1.7,2.41-1.42l48.47,12.51c1.06,.27,1.7,1.36,1.43,2.41s-1.36,1.7-2.42,1.43l-48.47-12.51c-1.06-.27-1.7-1.36-1.42-2.42Z"/><path class="b" d="M161.36,5.87c-.13-.5-.99-.71-1.92-.47s-1.57,.85-1.43,1.36c.13,.5,.99,.71,1.92,.47,.92-.25,1.57-.85,1.43-1.36Z"/><path class="b" d="M155.03,8.1c-.24-.46-1.13-.47-1.97-.02-.84,.45-1.33,1.18-1.09,1.65,.24,.46,1.13,.47,1.97,.02s1.33-1.18,1.09-1.65Z"/><path class="b" d="M155.56,11.91c-.42-.31-1.22,.05-1.8,.81-.58,.76-.71,1.64-.29,1.95,.42,.31,1.22-.05,1.8-.81,.58-.76,.71-1.64,.29-1.95Z"/><path class="b" d="M160.56,9.54c-.47-.23-1.19,.28-1.61,1.13-.42,.86-.39,1.74,.08,1.97,.47,.23,1.19-.28,1.61-1.13,.42-.86,.39-1.74-.08-1.97Z"/><path class="b" d="M164.94,7.23c-.95-.06-1.75,.32-1.79,.84s.72,.99,1.67,1.05c.95,.06,1.75-.32,1.79-.84s-.72-.99-1.67-1.05Z"/></g><g><path class="b" d="M196.86,102.54c.63-13.1-9.52-24.27-22.62-24.9l-5.2-.25c-13.1-.63-24.27,9.52-24.9,22.62l-.19,3.92,52.72,2.53,.19-3.92Zm-2.7,1.15l-47.43-2.27,.06-1.28c.56-11.64,10.48-20.66,22.13-20.1l5.2,.25c11.64,.56,20.66,10.48,20.1,22.13l-.06,1.28Z"/><path class="b" d="M162.62,83.95c-.23-.47-1.12-.5-1.97-.07s-1.36,1.15-1.13,1.62c.23,.47,1.12,.5,1.97,.07,.86-.43,1.36-1.15,1.13-1.62Z"/><path class="b" d="M156.88,87.42c-.33-.4-1.2-.23-1.94,.38-.74,.61-1.06,1.43-.73,1.83,.33,.4,1.2,.23,1.94-.38s1.06-1.43,.73-1.83Z"/><path class="b" d="M158.17,91.05c-.47-.22-1.19,.3-1.6,1.16-.41,.86-.36,1.75,.11,1.97,.47,.22,1.19-.3,1.6-1.16,.41-.86,.36-1.75-.11-1.97Z"/><path class="b" d="M162.59,87.7c-.5-.13-1.11,.51-1.35,1.44-.24,.93-.03,1.78,.48,1.91,.5,.13,1.11-.51,1.35-1.44,.24-.93,.03-1.78-.48-1.91Z"/><path class="b" d="M166.4,84.55c-.95,.14-1.65,.67-1.58,1.18s.9,.82,1.85,.69c.95-.14,1.65-.67,1.58-1.18s-.9-.82-1.85-.69Z"/></g><path class="b" d="M57.8,32.01l1.16,1.64c1.06,1.5,2.61,2.6,4.38,3.11l1.93,.56-1.64,1.16c-1.5,1.06-2.6,2.61-3.11,4.38l-.56,1.93-1.16-1.64c-1.06-1.5-2.61-2.6-4.38-3.11l-1.93-.56,1.64-1.16c1.5-1.06,2.6-2.61,3.11-4.38l.56-1.93Z"/><path class="b" d="M205.89,67.8l-.29,1.99c-.27,1.82,.09,3.68,1.01,5.27l1.01,1.74-1.99-.29c-1.82-.27-3.68,.09-5.27,1.01l-1.74,1.01,.29-1.99c.27-1.82-.09-3.68-1.01-5.27l-1.01-1.74,1.99,.29c1.82,.27,3.68-.09,5.27-1.01l1.74-1.01Z"/><path class="b" d="M123.23,17.19l-.88,.4c-.81,.37-1.46,1-1.86,1.79l-.44,.86-.4-.88c-.37-.81-1-1.46-1.79-1.86l-.86-.44,.88-.4c.81-.37,1.46-1,1.86-1.79l.44-.86,.4,.88c.37,.81,1,1.46,1.79,1.86l.86,.44Z"/></svg>